<svg xmlns="http://www.w3.org/2000/svg" width="174" height="48" fill="none" xmlns:v="https://vecta.io/nano"><path d="M36.5 27.094c0 2.479-.469 4.812-1.406 7-.938 2.167-2.219 4.062-3.844 5.687-1.625 1.604-3.531 2.875-5.719 3.813-2.167.937-4.489 1.406-6.969 1.406s-4.812-.469-7-1.406a18.43 18.43 0 0 1-5.687-3.813C4.271 38.156 3 36.26 2.063 34.094c-.937-2.188-1.406-4.521-1.406-7V.188h8.938v26.906a8.81 8.81 0 0 0 .687 3.469 9.3 9.3 0 0 0 4.781 4.781 9.04 9.04 0 0 0 3.5.687 8.81 8.81 0 0 0 3.469-.687c1.104-.479 2.063-1.125 2.875-1.938a8.86 8.86 0 0 0 1.906-2.844c.479-1.083.719-2.24.719-3.469V.188H36.5v26.906zM53.25 9.156v17.938h8.969c1.229 0 2.385-.229 3.469-.688a9.3 9.3 0 0 0 2.844-1.937c.813-.813 1.448-1.761 1.906-2.844.479-1.104.719-2.271.719-3.5s-.239-2.385-.719-3.469c-.458-1.104-1.094-2.062-1.906-2.875s-1.76-1.448-2.844-1.906c-1.083-.479-2.24-.719-3.469-.719H53.25zm0 35.844h-8.969V.188h17.938c1.646 0 3.229.219 4.75.656a16.76 16.76 0 0 1 4.25 1.813c1.333.771 2.542 1.708 3.625 2.813a16.92 16.92 0 0 1 2.812 3.625c.792 1.333 1.396 2.76 1.813 4.281a17.1 17.1 0 0 1 .656 4.75 17.1 17.1 0 0 1-.594 4.5 17.49 17.49 0 0 1-1.656 4.156c-.708 1.313-1.583 2.521-2.625 3.625s-2.208 2.063-3.5 2.875L76.719 45h-9.531l-3.906-9.031-10.031.062V45zm64.156 0H86.031V.188H95v35.844h22.406V45zm56.032-3.187a5.59 5.59 0 0 1-.407 2.125c-.271.646-.646 1.208-1.125 1.688a5.2 5.2 0 0 1-1.687 1.125c-.646.292-1.344.438-2.094.438a5.17 5.17 0 0 1-2.094-.437 5.58 5.58 0 0 1-1.719-1.125 5.66 5.66 0 0 1-1.156-1.687c-.271-.667-.406-1.375-.406-2.125 0-.729.135-1.417.406-2.062a5.66 5.66 0 0 1 1.156-1.687 5.58 5.58 0 0 1 1.719-1.125 5.17 5.17 0 0 1 2.094-.437c.75 0 1.448.146 2.094.438a5.2 5.2 0 0 1 1.687 1.125c.479.479.854 1.042 1.125 1.688s.407 1.333.407 2.063z" fill="#000"/><path d="M131.062 9.156v17.938h8.969a8.81 8.81 0 0 0 3.469-.688c1.083-.479 2.031-1.125 2.844-1.937s1.448-1.761 1.906-2.844a8.7 8.7 0 0 0 .719-3.5c0-1.229-.24-2.385-.719-3.469a8.78 8.78 0 0 0-1.906-2.875c-.813-.812-1.761-1.448-2.844-1.906a8.48 8.48 0 0 0-3.469-.719h-8.969zm0 35.844h-8.968V.188h17.937c1.646 0 3.229.219 4.75.656 1.521.417 2.938 1.021 4.25 1.813 1.334.771 2.542 1.708 3.625 2.813 1.104 1.083 2.042 2.292 2.813 3.625.791 1.333 1.396 2.76 1.812 4.281.438 1.521.657 3.104.657 4.75 0 1.542-.198 3.042-.594 4.5a17.5 17.5 0 0 1-1.656 4.156 17.11 17.11 0 0 1-2.626 3.625c-1.041 1.104-2.208 2.063-3.5 2.875L154.531 45H145l-3.906-9.031-10.032.062V45z" fill="#48aefa"/></svg>